@startuml

    title Aide mémoire for (Plant)UML, diagramme de classe

    interface IContentDownloader

    Content <|-- ContentSerie : réalisation de spécialisation\n(aka héritage)\nen java mot clé\n extends
    IContentDownloader <|.. ContentDownloaderLabgency : Relation de réalisation\njava implements\nsyntaxe :\n<|..
    g <.. H : Relation de dépendance\nimplémentation temporaire\n (pas un attribut)

    ' commentaire, nom des couleurs http://www.w3schools.com/HTML/html_colornames.asp
    Package equivalent #LightCoral {
        Class Person {
            String name;
        }
        Person2 "*" *-- "1" String2 : name
        Note top of Person2:  La composition\nest une agrégation forte\nsi l'agrégat est détruit ses composants le sont aussi.\nA une instance de composant ne peut être liée qu'à un seul agrégat

        note "notations équivalentes au\nniveau du code" as equivalent
        Person2 . equivalent
        equivalent . Person
    }

    Email "*" o-- "1..n" Destinataire : aggregation
    Email "1" o-- "0..1" Titre
    Email "1" o-- "0..1" Texte
    Note top of Email : Aggregation\nun élément agrégé peut être partagé\nUne instance d'élément agrégé peut exister sans agrégat

    M <-- N : association\n à navigabilité unidirectionelle,\n typiquement un atribut, un inject

    E <-- F
    note on link #red: note sur une lien\n syntaxe : \nnote on link #RED
    note right of F #RED : note sur une classe\n syntaxe : \nnote right of F #RED

    K +-- L : innerclass

    I<.J : ligne horizontale\n syntaxe : \nun seul trait ou point "<-"au lieu de deux

    ' ---- Hide a class : ----
    class Z
    hide Z

@enduml

http://stackoverflow.com/questions/31975109/android-class-diagram-uml