
@startuml
	title My internal model

	class com.zz.model.Campaign 
	class com.zz.model.Room 
	class com.zz.model.Measure
	class com.zz.model.OneWifiMeasure

	com.zz.model.Campaign *--  com.zz.model.Room
	com.zz.model.Room *--  com.zz.model.Measure
	com.zz.model.Measure *--  com.zz.model.OneWifiMeasure

	legend
		new : adding other constraints
	endlegend
@enduml